<?xml version="1.0" encoding="utf-8"?>
<!-- Generator: Adobe Illustrator 15.0.0, SVG Export Plug-In . SVG Version: 6.00 Build 0)  -->
<!DOCTYPE svg PUBLIC "-//W3C//DTD SVG 1.1//EN" "http://www.w3.org/Graphics/SVG/1.1/DTD/svg11.dtd">
<svg version="1.1" id="图层_1" xmlns="http://www.w3.org/2000/svg" xmlns:xlink="http://www.w3.org/1999/xlink" x="0px" y="0px"
	 width="56.689px" height="56.689px" viewBox="0 0 56.689 56.689" enable-background="new 0 0 56.689 56.689" xml:space="preserve">
<path display="none" fill="#0FA7EA" d="M26.188,31.912c0,3.596-1.137,6.444-3.397,8.555c-2.269,2.109-5.354,3.164-9.258,3.164
	c-3.908,0-6.955-1.092-9.142-3.28c-2.189-2.188-3.281-4.922-3.281-8.203v-1.642H6.5v1.406c0,2.344,0.703,4.142,2.108,5.392
	c1.406,1.252,3.047,1.875,4.922,1.875c2.498,0,4.337-0.664,5.509-1.992c1.172-1.326,1.758-2.931,1.758-4.806
	c0-1.562-0.703-3.008-2.108-4.336c-1.407-1.326-3.438-2.539-6.095-3.633c-3.75-1.407-6.444-2.968-8.086-4.688
	c-1.641-1.719-2.461-3.75-2.461-6.095c0-3.28,1.132-5.938,3.397-7.969c2.264-2.029,4.958-3.047,8.086-3.047
	c4.062,0,6.991,1.212,8.79,3.633c1.794,2.424,2.695,5.039,2.695,7.853h-5.392c0.152-1.719-0.314-3.281-1.406-4.688
	c-1.096-1.406-2.658-2.109-4.688-2.109c-1.875,0-3.361,0.51-4.452,1.523c-1.096,1.018-1.642,2.384-1.642,4.102
	c0,1.406,0.428,2.618,1.289,3.634c0.856,1.019,3.083,2.228,6.68,3.633c3.436,1.406,6.095,3.087,7.97,5.04
	C25.251,27.188,26.188,29.414,26.188,31.912z"/>
<g display="none">
	<path display="inline" fill="#0FA7EA" d="M52.74,21.065c-6.571,1.055-13.142,1.286-19.713,0.692
		c-0.152,4.181-0.241,8.36-0.265,12.541c5.152,0.071,10.307,0.067,15.46-0.011c0.01,1.425,0.01,2.851,0.003,4.274
		c-5.155-0.063-10.312-0.065-15.467-0.009c0.027,5.747,0.177,11.495,0.445,17.243c-1.797,0.215-3.595,0.512-5.392,0.893
		c-1.066-13.359-1.066-26.719,0-40.078c8.203,1.737,16.405,1.737,24.608,0C52.54,18.096,52.646,19.58,52.74,21.065
		C52.739,21.065,52.739,21.065,52.74,21.065z"/>
</g>
<g>
	<path fill="#219BD8" d="M3.436,40.628c0-1.729,0-3.458,0-5.188c1.181,0.084,2.396,0.079,3.583,0.063
		c1.188-0.016,2.249-0.012,3.261,0.012c1.012,0.021,1.933,0.073,2.833,0.112c0.897,0.041,1.702,0.061,2.438,0.01
		c2.523-0.156,4.348-0.601,5.516-1.495c1.162-0.877,1.696-2.119,1.411-3.836c-0.148-0.912-0.537-1.729-1.106-2.44
		c-0.566-0.709-1.247-1.336-1.92-1.845c-0.678-0.511-1.317-0.921-1.916-1.237c-0.607-0.318-1.141-0.564-1.835-0.82
		c-0.733-0.27-1.594-0.561-2.741-0.991c-1.139-0.427-2.502-1.029-3.914-1.85c-1.409-0.815-2.798-1.875-3.857-3.094
		c-1.072-1.217-1.643-2.614-1.637-4.008c-0.008-1.724,0.822-2.872,1.921-3.743c1.11-0.873,2.232-1.656,3.484-2.537
		c1.254-0.864,2.619-1.837,4.329-2.581c1.698-0.748,3.575-1.221,5.479-1.21c4.38,0.007,7.244,0.98,9.249,1.688
		c-0.267,2.038-0.497,3.903-0.69,5.644c-3.382-0.223-6.11-0.377-9.389-0.152c-0.897,0.06-1.781,0.209-2.65,0.421
		c-0.871,0.212-1.631,0.533-2.287,0.936c-0.656,0.405-1.177,0.904-1.563,1.501c-0.386,0.597-0.519,1.37-0.361,2.312
		c0.144,0.874,0.47,1.635,0.947,2.294c0.473,0.659,1.086,1.259,1.727,1.764c0.642,0.505,1.287,0.937,1.89,1.275
		c0.613,0.342,1.167,0.62,1.862,0.88c0.717,0.27,1.521,0.536,2.647,0.951c1.117,0.413,2.49,1.006,3.97,1.855
		c1.477,0.844,2.976,1.952,4.149,3.229c1.185,1.275,1.823,2.72,1.812,4.115c0.001,1.867-0.811,3.1-1.871,4.006
		c-1.077,0.907-2.196,1.703-3.466,2.571c-1.273,0.853-2.682,1.791-4.455,2.454c-1.761,0.667-3.754,1.091-5.843,1.081
		c-0.695,0.001-1.547-0.104-2.54-0.283c-0.994-0.181-1.985-0.425-2.996-0.672c-1.013-0.247-1.972-0.495-2.942-0.691
		C4.996,40.93,4.145,40.782,3.436,40.628z"/>
</g>
<g>
	<path fill="#219BD8" d="M53.436,20.365c-8.195,3.28-10.685,4.037-16.246,2.271c0.884,5.844,1.38,8.821,1.487,11.448
		c4.904,0.522,2.938,0.354,12.258-0.503c-0.017,1.16-0.015,2.31,0.005,3.472c-9.306-1.014-7.366-1.213-12.271-0.596
		c-0.164,3.39-0.965,7.46-2.4,17.494c-1.717,0-3.434,0-5.15,0c0-12.522,0-25.045,0-37.567c7.439,0,14.879,0,22.318,0
		C53.436,17.711,53.436,19.038,53.436,20.365z"/>
</g>
</svg>
